<svg aria-hidden="true" fill="none" height="10" viewbox="0 0 10 10" width="10" xmlns="http://www.w3.org/2000/svg"><g filter="url(#filter0_i_642_8691)"><path d="M7.08329 4.16667V3.33333C7.08329 2.18274 6.15054 1.25 4.99996 1.25C3.84937 1.25 2.91663 2.18274 2.91663 3.33333V4.16667M4.99996 6.04167V6.875M3.66663 8.75H6.33329C7.03338 8.75 7.38338 8.75 7.65079 8.61375C7.886 8.49392 8.07721 8.30271 8.19704 8.0675C8.33329 7.80008 8.33329 7.45008 8.33329 6.75V6.16667C8.33329 5.46658 8.33329 5.11658 8.19704 4.84917C8.07721 4.61396 7.886 4.42275 7.65079 4.30292C7.38338 4.16667 7.03338 4.16667 6.33329 4.16667H3.66663C2.96656 4.16667 2.61653 4.16667 2.34914 4.30292C2.11393 4.42275 1.92271 4.61396 1.80287 4.84917C1.66663 5.11658 1.66663 5.46658 1.66663 6.16667V6.75C1.66663 7.45008 1.66663 7.80008 1.80287 8.0675C1.92271 8.30271 2.11393 8.49392 2.34914 8.61375C2.61653 8.75 2.96656 8.75 3.66663 8.75Z" stroke="#BFBFBF" stroke-linecap="round" stroke-linejoin="round" stroke-width="1.2"></path></g><defs><filter color-interpolation-filters="sRGB" filterunits="userSpaceOnUse" height="9.19922" id="filter0_i_642_8691" width="7.8667" x="1.06665" y="0.650391"><feflood flood-opacity="0" result="BackgroundImageFix"></feflood><feblend in="SourceGraphic" in2="BackgroundImageFix" mode="normal" result="shape"></feblend><fecolormatrix in="SourceAlpha" result="hardAlpha" type="matrix" values="0 0 0 0 0 0 0 0 0 0 0 0 0 0 0 0 0 0 127 0"></fecolormatrix><feoffset dy="0.5"></feoffset><fegaussianblur stddeviation="0.5"></fegaussianblur><fecomposite in2="hardAlpha" k2="-1" k3="1" operator="arithmetic"></fecomposite><fecolormatrix type="matrix" values="0 0 0 0 0 0 0 0 0 0 0 0 0 0 0 0 0 0 0.6 0"></fecolormatrix><feblend in2="shape" mode="normal" result="effect1_innerShadow_642_8691"></feblend></filter></defs></svg>