<svg xmlns="http://www.w3.org/2000/svg" width="15" height="15" viewBox="0 0 15 15" fill="none" aria-hidden="true"><g clip-path="url(#clip0_642_8680)"><g filter="url(#filter0_i_642_8680)"><path d="M11.6062 4.38379C13.4656 4.58517 14.5202 5.80673 14.5203 7.88086V13.9434H11.6062V8.52539C11.6062 8.38999 11.572 6.93457 9.96167 6.93457C9.41821 6.93464 8.93528 7.17626 8.66675 7.65918C8.35127 8.23644 8.39819 8.90809 8.39819 9.53906V13.9023H5.48413V4.6123H8.27026V5.85352C8.27294 5.84909 8.31392 5.78305 8.39819 5.67285C8.72043 5.25664 9.64003 4.28932 11.2712 4.35645C11.3851 4.36315 11.499 4.3704 11.6062 4.38379ZM3.72534 13.876H0.812256V4.58496H3.72534V13.876ZM2.26831 0C3.2025 0 3.96056 0.757245 3.96069 1.69141C3.96069 2.62568 3.20259 3.38379 2.26831 3.38379C1.33415 3.38365 0.576904 2.6256 0.576904 1.69141C0.577041 0.757328 1.33423 0.00013546 2.26831 0Z" fill="#262323" fill-opacity="0.8"></path></g></g><defs><filter id="filter0_i_642_8680" x="0.576904" y="0" width="13.9434" height="14.4434" filterUnits="userSpaceOnUse" color-interpolation-filters="sRGB"><feFlood flood-opacity="0" result="BackgroundImageFix"></feFlood><feBlend mode="normal" in="SourceGraphic" in2="BackgroundImageFix" result="shape"></feBlend><feColorMatrix in="SourceAlpha" type="matrix" values="0 0 0 0 0 0 0 0 0 0 0 0 0 0 0 0 0 0 127 0" result="hardAlpha"></feColorMatrix><feOffset dy="0.5"></feOffset><feGaussianBlur stdDeviation="0.25"></feGaussianBlur><feComposite in2="hardAlpha" operator="arithmetic" k2="-1" k3="1"></feComposite><feColorMatrix type="matrix" values="0 0 0 0 0 0 0 0 0 0 0 0 0 0 0 0 0 0 0.32 0"></feColorMatrix><feBlend mode="normal" in2="shape" result="effect1_innerShadow_642_8680"></feBlend></filter><clipPath id="clip0_642_8680"><rect width="15" height="15" fill="white"></rect></clipPath></defs></svg>