<svg xmlns="http://www.w3.org/2000/svg" width="9" height="9" viewBox="0 0 14 14" fill="none" aria-hidden="true"><path d="M5.83333 7.58336V6.41669H4.66666V7.58336H5.83333Z" fill="#34A853"></path><path d="M7 7.58336L5.83333 7.58336L5.83333 8.75003H7V7.58336Z" fill="#34A853"></path><path d="M8.16666 6.41669V7.58336H7V6.41669H8.16666Z" fill="#34A853"></path><path d="M8.16666 6.41669H9.33333V5.25003H8.16666L8.16666 6.41669Z" fill="#34A853"></path><path d="M8.75 1.75L5.25 1.75V2.91667L8.75 2.91667L8.75 4.08333H9.91666L9.91667 5.25L11.0833 5.25L11.0833 2.91667L8.75 2.91667V1.75Z" fill="#34A853"></path><path d="M2.91667 2.91667H5.25L5.25 4.08333H4.08333V5.25H2.91667L2.91667 2.91667Z" fill="#34A853"></path><path d="M2.91667 5.25L2.91667 8.75H1.75L1.75 5.25L2.91667 5.25Z" fill="#34A853"></path><path fill-rule="evenodd" clip-rule="evenodd" d="M8.75 11.0833V12.25L5.25 12.25L5.25 11.0833H8.75ZM8.75 11.0833L8.75 9.91667L9.91667 9.91666L9.91667 8.75L11.0833 8.75V11.0833H8.75Z" fill="#34A853"></path><path d="M11.0833 8.75V5.25L12.25 5.25L12.25 8.75H11.0833Z" fill="#34A853"></path><path d="M2.91667 8.75L2.91667 11.0833L5.25 11.0833L5.25 9.91666H4.08333V8.74999L2.91667 8.75Z" fill="#34A853"></path></svg>