<svg width="38" height="288" viewBox="0 0 42 318" preserveAspectRatio="none" fill="none" xmlns="http://www.w3.org/2000/svg" style="overflow:visible;display:block"><defs><mask id="mborder-4-m" maskUnits="userSpaceOnUse" x="0" y="0" width="42" height="318"><rect x="0" y="0" width="42" height="318" fill="black"></rect><path pathLength="1000" d="M41.6577 300L38.8901 300L38.8901 13.6035L36.23 13.6035L36.23 10.8496L36.228 10.8496L36.228 8.22266L33.603 8.22266L33.603 5.51758L28.229 5.51758L28.229 2.76758L15.2983 2.76758L15.2983 5.51953L9.8999 5.51953L9.8999 8.22461L7.27393 8.22461L7.27393 10.8496L7.27295 10.8496L7.27295 13.6055L4.61279 13.6055L4.61278 300L1.8452 300L1.84521 13.5195L4.50537 13.5195L4.50537 10.8379L4.50635 10.8379L4.50635 8.08203L7.13232 8.08203L7.13232 5.45703L9.84033 5.45703L9.84033 2.75195L15.2515 2.75195L15.2515 -1.15425e-06L28.2642 -5.85451e-07L28.2642 2.75L33.6636 2.75L33.6636 5.45508L36.3706 5.45508L36.3706 8.08203L38.9956 8.08203L38.9956 10.8359L38.9976 10.8359L38.9976 13.5195L41.6577 13.5195L41.6577 300ZM38.9956 302.979L38.9956 305.734L36.3686 305.734L36.3686 308.357L33.6626 308.357L33.6626 311.064L28.2632 311.064L28.2632 313.814L15.2505 313.814L15.2505 311.066L9.83934 311.066L9.83934 308.359L7.13133 308.359L7.13133 305.732L4.50536 305.732L4.50536 300.209L7.27294 300.209L7.27294 305.592L9.89891 305.592L9.89891 308.299L15.2973 308.299L15.2973 311.047L28.228 311.047L28.228 308.297L33.6011 308.297L33.6011 305.59L36.228 305.59L36.228 302.967L36.229 302.967L36.229 300.211L38.9966 300.211L38.9966 302.979L38.9956 302.979Z" class="wordsearch-reveal-pen wordsearch-reveal-dir-cw"></path></mask><linearGradient id="mborder-4-g" x1="21.7515" y1="-8.7013e-07" x2="21.7515" y2="313.814" gradientUnits="userSpaceOnUse"><stop stop-color="#86CEFF"></stop><stop offset="1" stop-color="#85CCFC"></stop></linearGradient><filter id="mborder-4-f" x="9.07183e-05" y="0" width="42" height="317.505" filterUnits="userSpaceOnUse" color-interpolation-filters="sRGB"><feFlood flood-opacity="0" result="BackgroundImageFix"></feFlood><feColorMatrix in="SourceAlpha" type="matrix" values="0 0 0 0 0 0 0 0 0 0 0 0 0 0 0 0 0 0 127 0" result="hardAlpha"></feColorMatrix><feOffset dy="1.84512"></feOffset><feGaussianBlur stdDeviation="0.922562"></feGaussianBlur><feComposite in2="hardAlpha" operator="out"></feComposite><feColorMatrix type="matrix" values="0 0 0 0 1 0 0 0 0 1 0 0 0 0 1 0 0 0 1 0"></feColorMatrix><feBlend mode="normal" in2="BackgroundImageFix" result="effect1_dropShadow"></feBlend><feBlend mode="normal" in="SourceGraphic" in2="effect1_dropShadow" result="shape"></feBlend><feColorMatrix in="SourceAlpha" type="matrix" values="0 0 0 0 0 0 0 0 0 0 0 0 0 0 0 0 0 0 127 0" result="hardAlpha"></feColorMatrix><feOffset dy="0.461281"></feOffset><feGaussianBlur stdDeviation="0.230641"></feGaussianBlur><feComposite in2="hardAlpha" operator="arithmetic" k2="-1" k3="1"></feComposite><feColorMatrix type="matrix" values="0 0 0 0 0.261473 0 0 0 0 0.544903 0 0 0 0 0.737793 0 0 0 1 0"></feColorMatrix><feBlend mode="normal" in2="shape" result="effect2_innerShadow"></feBlend></filter></defs><g filter="url(#mborder-4-f)" mask="url(#mborder-4-m)"><path fill-rule="evenodd" clip-rule="evenodd" d="M41.6577 300L38.8901 300L38.8901 13.6035L36.23 13.6035L36.23 10.8496L36.228 10.8496L36.228 8.22266L33.603 8.22266L33.603 5.51758L28.229 5.51758L28.229 2.76758L15.2983 2.76758L15.2983 5.51953L9.8999 5.51953L9.8999 8.22461L7.27393 8.22461L7.27393 10.8496L7.27295 10.8496L7.27295 13.6055L4.61279 13.6055L4.61278 300L1.8452 300L1.84521 13.5195L4.50537 13.5195L4.50537 10.8379L4.50635 10.8379L4.50635 8.08203L7.13232 8.08203L7.13232 5.45703L9.84033 5.45703L9.84033 2.75195L15.2515 2.75195L15.2515 -1.15425e-06L28.2642 -5.85451e-07L28.2642 2.75L33.6636 2.75L33.6636 5.45508L36.3706 5.45508L36.3706 8.08203L38.9956 8.08203L38.9956 10.8359L38.9976 10.8359L38.9976 13.5195L41.6577 13.5195L41.6577 300ZM38.9956 302.979L38.9956 305.734L36.3686 305.734L36.3686 308.357L33.6626 308.357L33.6626 311.064L28.2632 311.064L28.2632 313.814L15.2505 313.814L15.2505 311.066L9.83934 311.066L9.83934 308.359L7.13133 308.359L7.13133 305.732L4.50536 305.732L4.50536 300.209L7.27294 300.209L7.27294 305.592L9.89891 305.592L9.89891 308.299L15.2973 308.299L15.2973 311.047L28.228 311.047L28.228 308.297L33.6011 308.297L33.6011 305.59L36.228 305.59L36.228 302.967L36.229 302.967L36.229 300.211L38.9966 300.211L38.9966 302.979L38.9956 302.979Z" fill="url(#mborder-4-g)"></path></g></svg>