<svg width="17" height="17" viewBox="0 0 17 17" fill="none" aria-hidden="true" class="block shrink-0"><rect x="15" y="7.5" width="2" height="2" fill="#6AB830"></rect><rect x="12.5" y="7.5" width="2" height="2" fill="#6AB830"></rect><rect x="15" y="5" width="2" height="2" fill="#C2E2A3"></rect><rect x="12.5" y="5" width="2" height="2" fill="#C2E2A3"></rect><rect x="12.5" y="2.5" width="2" height="2" fill="#C2E2A3"></rect><rect x="12.5" y="10" width="2" height="2" fill="#6AB830"></rect><rect x="10" y="10" width="2" height="2" fill="#6AB830"></rect><rect x="7.5" y="10" width="2" height="2" fill="#6AB830"></rect><rect x="7.5" y="7.5" width="2" height="2" fill="#6AB830"></rect><rect x="7.5" y="2.5" width="2" height="2" fill="#6AB830"></rect><rect x="7.5" y="0" width="2" height="2" fill="#6AB830"></rect><rect x="5" y="0" width="2" height="2" fill="#6AB830"></rect><rect x="5" y="2.5" width="2" height="2" fill="#6AB830"></rect><rect x="5" y="5" width="2" height="2" fill="#6AB830"></rect><rect x="0" y="5" width="2" height="2" fill="#1F5C00"></rect><rect x="0" y="7.5" width="2" height="2" fill="#2E7A00"></rect><rect x="10" y="0" width="2" height="2" fill="#C2E2A3"></rect><rect x="12.5" y="12.5" width="2" height="2" fill="#6AB830"></rect><rect x="2.5" y="12.5" width="2" height="2" fill="#2E7A00"></rect><rect x="7.5" y="15" width="2" height="2" fill="#2E7A00"></rect></svg>